<?xml version="1.0" encoding="UTF-8" standalone="no"?>
<!-- Created with Inkscape (http://www.inkscape.org/) -->
<svg id="svg2" xmlns:rdf="http://www.w3.org/1999/02/22-rdf-syntax-ns#" xmlns="http://www.w3.org/2000/svg" height="30" width="30" version="1.1" xmlns:cc="http://creativecommons.org/ns#" xmlns:dc="http://purl.org/dc/elements/1.1/">
	<metadata id="metadata7">
		<rdf:RDF>
			<cc:Work rdf:about="">
				<dc:format>image/svg+xml</dc:format>
				<dc:type rdf:resource="http://purl.org/dc/dcmitype/StillImage"/>
				<dc:title/>
			</cc:Work>
		</rdf:RDF>
	</metadata>
	<g id="layer1" transform="translate(0,-1022.3622)" stroke-dasharray="none" stroke-miterlimit="4" stroke-width="0.5">
		<path id="path3061" d="m7.6397325,1037.2976c-4.036347-8.0728-7.33881258-14.691-7.33881258-14.7071,0-0.016,6.60498048-0.029,14.67773408-0.029,9.753885,0,14.677733,0.02,14.677733,0.059,0,0.058-14.634412,29.3554-14.663162,29.3554-0.0081,0-3.317145-6.605-7.3534925-14.6777zm12.1729065,1.582,0-1.8457-4.804688,0-4.804687,0,0,1.8457,0,1.8457,4.804687,0,4.804688,0,0-1.8457zm-12.8476628-12.2621c0.8525075,0.8525,1.0823051,1.0529,1.1406312,0.9945,0.058326-0.058-0.142039-0.2881-0.9945405-1.1406l-1.0675817-1.0676,1.067386-1.0685c0.8492643-0.8502,1.0525394-1.0834,0.9947362-1.1412-0.057803-0.058-0.2910101,0.1454-1.1412065,0.9947l-1.0685569,1.0674-1.0675819-1.0676c-0.850965-0.851-1.0823625-1.0528-1.1404275-0.9947-0.058065,0.058,0.1437715,0.2897,0.994737,1.1416l1.0675825,1.0687-1.0815375,1.0804c-0.86172,0.8608-1.0680325,1.0966-1.0150914,1.1604,0.053386,0.064,0.2804334-0.1337,1.1551537-1.0075l1.0887082-1.0876,1.0675891,1.0676zm18.4178338-0.097c-0.58215-0.5828-1.058454-1.086-1.058454-1.1182,0-0.032,0.474089-0.5322,1.053528-1.111,0.70245-0.7016,1.033999-1.0718,0.994926-1.1109-0.03908-0.039-0.41944,0.3019-1.141418,1.0231l-1.082817,1.0816-1.082815-1.0816c-0.861541-0.8606-1.097662-1.0668-1.155465-1.009-0.0578,0.058,0.148382,0.2939,1.00898,1.1554l1.08163,1.0829-1.075297,1.0764c-0.718928,0.7197-1.051533,1.0912-1.003595,1.1208,0.04669,0.029,0.442642-0.3262,1.13507-1.0179l1.063369-1.0622,1.080352,1.0816c0.860716,0.8616,1.096626,1.068,1.160407,1.0151,0.06432-0.053-0.127948-0.2747-0.978401-1.1261z" fill="#FC0"/>
		<path id="path3063" d="m10.437639,1038.8796,0-1.6699,4.570312,0,4.570313,0,0,1.6699,0,1.6699-4.570313,0-4.570312,0,0-1.6699z" fill="#c8c4b7"/>
	</g>
	<g id="layer2" stroke-linejoin="miter" transform="translate(0,-98)" stroke="#000" stroke-linecap="butt" fill="none">
		<path id="path3045" d="M0.1171875,98.117187,15,127.88281,29.882812,98.117187z" stroke-width="0.234375px"/>
		<path id="path3051" d="m10.3125,116.28125,0-3.51562,9.375,0,0.01343,3.51946z" stroke-width="0.234375px"/>
		<path id="path3053" d="m3.6554932,98.813696,4.4663573,4.466354" stroke-width="0.22114252px"/>
		<path id="path3055" d="M5.878837,101.05671,8.1211547,98.814392,3.6561891,103.27936" stroke-width="0.22253445px"/>
		<path id="path3057" d="m21.907446,98.813696,4.466358,4.466354" stroke-width="0.22114252px"/>
		<path id="path3059" d="m24.130791,101.05671,2.242317-2.242318-4.464966,4.464968" stroke-width="0.22253445px"/>
	</g>
</svg>
