<?xml version="1.0" encoding="UTF-8" standalone="no"?>
<!-- Created with Inkscape (http://www.inkscape.org/) -->

<svg
   xmlns:dc="http://purl.org/dc/elements/1.1/"
   xmlns:cc="http://creativecommons.org/ns#"
   xmlns:rdf="http://www.w3.org/1999/02/22-rdf-syntax-ns#"
   xmlns:svg="http://www.w3.org/2000/svg"
   xmlns="http://www.w3.org/2000/svg"
   xmlns:sodipodi="http://sodipodi.sourceforge.net/DTD/sodipodi-0.dtd"
   xmlns:inkscape="http://www.inkscape.org/namespaces/inkscape"
   width="128"
   height="128"
   id="svg3951"
   version="1.1"
   inkscape:version="0.48.2 r9819"
   sodipodi:docname="ProjectHeliumLogo.svg"
   inkscape:export-filename="F:\Pictures\Project Helium\128logo.png"
   inkscape:export-xdpi="90"
   inkscape:export-ydpi="90">
  <defs
     id="defs3953" />
  <sodipodi:namedview
     id="base"
     pagecolor="#ffffff"
     bordercolor="#666666"
     borderopacity="1.0"
     inkscape:pageopacity="0.0"
     inkscape:pageshadow="2"
     inkscape:zoom="3.959798"
     inkscape:cx="62.952746"
     inkscape:cy="59.101422"
     inkscape:document-units="px"
     inkscape:current-layer="layer1"
     showgrid="false"
     inkscape:showpageshadow="false"
     inkscape:window-width="1920"
     inkscape:window-height="1028"
     inkscape:window-x="-8"
     inkscape:window-y="-8"
     inkscape:window-maximized="1" />
  <metadata
     id="metadata3956">
    <rdf:RDF>
      <cc:Work
         rdf:about="">
        <dc:format>image/svg+xml</dc:format>
        <dc:type
           rdf:resource="http://purl.org/dc/dcmitype/StillImage" />
        <dc:title></dc:title>
      </cc:Work>
    </rdf:RDF>
  </metadata>
  <g
     inkscape:label="Layer 1"
     inkscape:groupmode="layer"
     id="layer1"
     transform="translate(0,-924.36218)">
    <path
       sodipodi:type="arc"
       style="color:#000000;fill:none;stroke:#000000;stroke-width:0.61591756px;stroke-linecap:butt;stroke-linejoin:miter;stroke-miterlimit:4;stroke-opacity:1;stroke-dasharray:none;stroke-dashoffset:0;marker:none;visibility:visible;display:inline;overflow:visible;enable-background:accumulate"
       id="path3837"
       sodipodi:cx="-140.41121"
       sodipodi:cy="-60.898525"
       sodipodi:rx="18.687822"
       sodipodi:ry="31.567266"
       d="m -121.72339,-60.898525 c 0,17.43412 -8.36682,31.567266 -18.68782,31.567266 -10.321,0 -18.68782,-14.133146 -18.68782,-31.567266 0,-17.43412 8.36682,-31.567267 18.68782,-31.567267 10.321,0 18.68782,14.133147 18.68782,31.567267 z"
       transform="matrix(1.3331993,0,0,1.9772416,250.62056,1109.9414)" />
    <path
       sodipodi:type="arc"
       style="color:#000000;fill:none;stroke:#000000;stroke-width:0.61591756px;stroke-linecap:butt;stroke-linejoin:miter;stroke-miterlimit:4;stroke-opacity:1;stroke-dasharray:none;stroke-dashoffset:0;marker:none;visibility:visible;display:inline;overflow:visible;enable-background:accumulate"
       id="path3837-7"
       sodipodi:cx="-140.41121"
       sodipodi:cy="-60.898525"
       sodipodi:rx="18.687822"
       sodipodi:ry="31.567266"
       d="m -121.72339,-60.898525 c 0,17.43412 -8.36682,31.567266 -18.68782,31.567266 -10.321,0 -18.68782,-14.133146 -18.68782,-31.567266 0,-17.43412 8.36682,-31.567267 18.68782,-31.567267 10.321,0 18.68782,14.133147 18.68782,31.567267 z"
       transform="matrix(-0.91256574,-0.97794258,1.4325823,-1.3534082,22.532146,769.28392)" />
    <path
       sodipodi:type="arc"
       style="color:#000000;fill:none;stroke:#000000;stroke-width:0.61591756px;stroke-linecap:butt;stroke-linejoin:miter;stroke-miterlimit:4;stroke-opacity:1;stroke-dasharray:none;stroke-dashoffset:0;marker:none;visibility:visible;display:inline;overflow:visible;enable-background:accumulate"
       id="path3837-4"
       sodipodi:cx="-140.41121"
       sodipodi:cy="-60.898525"
       sodipodi:rx="18.687822"
       sodipodi:ry="31.567266"
       d="m -121.72339,-60.898525 c 0,17.43412 -8.36682,31.567266 -18.68782,31.567266 -10.321,0 -18.68782,-14.133146 -18.68782,-31.567266 0,-17.43412 8.36682,-31.567267 18.68782,-31.567267 10.321,0 18.68782,14.133147 18.68782,31.567267 z"
       transform="matrix(0.90866984,-0.98160833,1.4379524,1.3476303,278.58106,933.25841)" />
    <path
       sodipodi:type="arc"
       style="color:#000000;fill:none;stroke:#000000;stroke-width:0.61591756px;stroke-linecap:butt;stroke-linejoin:miter;stroke-miterlimit:4;stroke-opacity:1;stroke-dasharray:none;stroke-dashoffset:0;marker:none;visibility:visible;display:inline;overflow:visible;enable-background:accumulate"
       id="path3837-0"
       sodipodi:cx="-140.41121"
       sodipodi:cy="-60.898525"
       sodipodi:rx="18.687822"
       sodipodi:ry="31.567266"
       d="m -121.72339,-60.898525 c 0,17.43412 -8.36682,31.567266 -18.68782,31.567266 -10.321,0 -18.68782,-14.133146 -18.68782,-31.567266 0,-17.43412 8.36682,-31.567267 18.68782,-31.567267 10.321,0 18.68782,14.133147 18.68782,31.567267 z"
       transform="matrix(0,1.3414494,-1.9650813,0,-54.212276,1177.3731)" />
    <path
       sodipodi:type="arc"
       style="color:#000000;fill:#000000;fill-opacity:1;fill-rule:evenodd;stroke:#000000;stroke-width:2.66347837px;stroke-linecap:butt;stroke-linejoin:miter;stroke-miterlimit:4;stroke-opacity:1;stroke-dasharray:none;stroke-dashoffset:0;marker:none;visibility:visible;display:inline;overflow:visible;enable-background:accumulate"
       id="path3871"
       sodipodi:cx="-60.861691"
       sodipodi:cy="-84.637108"
       sodipodi:rx="6.0609155"
       sodipodi:ry="7.0710678"
       d="m -54.800775,-84.637108 c 0,3.905243 -2.713564,7.071068 -6.060916,7.071068 -3.347351,0 -6.060915,-3.165825 -6.060915,-7.071068 0,-3.905243 2.713564,-7.071068 6.060915,-7.071068 3.347352,0 6.060916,3.165825 6.060916,7.071068 z"
       transform="matrix(0.40428218,0,0,0.34867196,87.937745,956.71719)" />
    <path
       sodipodi:type="arc"
       style="color:#000000;fill:#000000;fill-opacity:1;fill-rule:evenodd;stroke:#000000;stroke-width:2.66347837px;stroke-linecap:butt;stroke-linejoin:miter;stroke-miterlimit:4;stroke-opacity:1;stroke-dasharray:none;stroke-dashoffset:0;marker:none;visibility:visible;display:inline;overflow:visible;enable-background:accumulate"
       id="path3871-4"
       sodipodi:cx="-60.861691"
       sodipodi:cy="-84.637108"
       sodipodi:rx="6.0609155"
       sodipodi:ry="7.0710678"
       d="m -54.800775,-84.637108 c 0,3.905243 -2.713564,7.071068 -6.060916,7.071068 -3.347351,0 -6.060915,-3.165825 -6.060915,-7.071068 0,-3.905243 2.713564,-7.071068 6.060915,-7.071068 3.347352,0 6.060916,3.165825 6.060916,7.071068 z"
       transform="matrix(0.40428218,0,0,0.34867196,133.28276,974.53094)" />
    <path
       sodipodi:type="arc"
       style="color:#000000;fill:#000000;fill-opacity:1;fill-rule:evenodd;stroke:#000000;stroke-width:2.66347837px;stroke-linecap:butt;stroke-linejoin:miter;stroke-miterlimit:4;stroke-opacity:1;stroke-dasharray:none;stroke-dashoffset:0;marker:none;visibility:visible;display:inline;overflow:visible;enable-background:accumulate"
       id="path3871-8"
       sodipodi:cx="-60.861691"
       sodipodi:cy="-84.637108"
       sodipodi:rx="6.0609155"
       sodipodi:ry="7.0710678"
       d="m -54.800775,-84.637108 c 0,3.905243 -2.713564,7.071068 -6.060916,7.071068 -3.347351,0 -6.060915,-3.165825 -6.060915,-7.071068 0,-3.905243 2.713564,-7.071068 6.060915,-7.071068 3.347352,0 6.060916,3.165825 6.060916,7.071068 z"
       transform="matrix(0.40428218,0,0,0.34867196,132.26583,1061.5041)" />
    <path
       sodipodi:type="arc"
       style="color:#000000;fill:#000000;fill-opacity:1;fill-rule:evenodd;stroke:#000000;stroke-width:2.66347837px;stroke-linecap:butt;stroke-linejoin:miter;stroke-miterlimit:4;stroke-opacity:1;stroke-dasharray:none;stroke-dashoffset:0;marker:none;visibility:visible;display:inline;overflow:visible;enable-background:accumulate"
       id="path3871-82"
       sodipodi:cx="-60.861691"
       sodipodi:cy="-84.637108"
       sodipodi:rx="6.0609155"
       sodipodi:ry="7.0710678"
       d="m -54.800775,-84.637108 c 0,3.905243 -2.713564,7.071068 -6.060916,7.071068 -3.347351,0 -6.060915,-3.165825 -6.060915,-7.071068 0,-3.905243 2.713564,-7.071068 6.060915,-7.071068 3.347352,0 6.060916,3.165825 6.060916,7.071068 z"
       transform="matrix(0.40428218,0,0,0.34867196,27.522867,1017.506)" />
  </g>
</svg>
