<?xml version="1.0" encoding="UTF-8" standalone="no"?>
<!-- Created with Inkscape (http://www.inkscape.org/) -->

<svg
   xmlns:dc="http://purl.org/dc/elements/1.1/"
   xmlns:cc="http://creativecommons.org/ns#"
   xmlns:rdf="http://www.w3.org/1999/02/22-rdf-syntax-ns#"
   xmlns:svg="http://www.w3.org/2000/svg"
   xmlns="http://www.w3.org/2000/svg"
   xmlns:sodipodi="http://sodipodi.sourceforge.net/DTD/sodipodi-0.dtd"
   xmlns:inkscape="http://www.inkscape.org/namespaces/inkscape"
   width="128"
   height="128"
   id="svg2"
   version="1.1"
   inkscape:version="0.48.2 r9819"
   sodipodi:docname="ProjectHelium1.svg"
   inkscape:export-filename="F:\Pictures\Project Helium\heliumclass1.png"
   inkscape:export-xdpi="21.09"
   inkscape:export-ydpi="21.09">
  <defs
     id="defs4" />
  <sodipodi:namedview
     id="base"
     pagecolor="#ff0000"
     bordercolor="#666666"
     borderopacity="1.0"
     inkscape:pageopacity="0"
     inkscape:pageshadow="2"
     inkscape:zoom="5.6"
     inkscape:cx="55.448749"
     inkscape:cy="62.917959"
     inkscape:document-units="px"
     inkscape:current-layer="layer2"
     showgrid="true"
     width="128px"
     inkscape:showpageshadow="false"
     showguides="true"
     inkscape:guide-bbox="true"
     inkscape:snap-page="true"
     inkscape:window-width="1920"
     inkscape:window-height="1028"
     inkscape:window-x="-8"
     inkscape:window-y="-8"
     inkscape:window-maximized="1">
    <sodipodi:guide
       orientation="1,0"
       position="64,172"
       id="guide2993" />
    <inkscape:grid
       type="xygrid"
       id="grid2995"
       empspacing="5"
       visible="true"
       enabled="true"
       snapvisiblegridlinesonly="true" />
    <sodipodi:guide
       orientation="0,1"
       position="59,64"
       id="guide2997" />
  </sodipodi:namedview>
  <metadata
     id="metadata7">
    <rdf:RDF>
      <cc:Work
         rdf:about="">
        <dc:format>image/svg+xml</dc:format>
        <dc:type
           rdf:resource="http://purl.org/dc/dcmitype/StillImage" />
        <dc:title></dc:title>
      </cc:Work>
    </rdf:RDF>
  </metadata>
  <g
     inkscape:label="Outline"
     inkscape:groupmode="layer"
     id="layer1"
     transform="translate(0,-924.36218)"
     style="display:inline">
    <path
       style="fill:none;stroke:#000000;stroke-width:0.99999988px;stroke-linecap:butt;stroke-linejoin:miter;stroke-opacity:1"
       d="m 63.925365,925.61218 63.127615,124.81182 -126.0428275,0 z"
       id="path2999"
       inkscape:connector-curvature="0" />
  </g>
  <g
     inkscape:groupmode="layer"
     id="layer2"
     inkscape:label="Fill"
     style="display:inline">
    <path
       style="opacity:0.98000003999999996;fill:#f9f9f9;fill-opacity:1;fill-rule:evenodd;stroke:none"
       d="M 15.096031,99.725648 C 52.965185,24.50701 63.734667,3.2192487 63.919349,3.217837 64.124642,3.2162677 125.6799,124.73384 125.6799,125.14068 c 0,0.12015 -27.785065,0.21846 -61.744583,0.21846 l -61.7445795,0 12.9052935,-25.633492 z"
       id="path3980"
       inkscape:connector-curvature="0" />
    <rect
       style="opacity:0.98000004;fill:#000000;fill-opacity:1;fill-rule:evenodd;stroke:none"
       id="rect4110"
       width="26"
       height="6"
       x="51"
       y="33" />
  </g>
  <g
     inkscape:groupmode="layer"
     id="layer4"
     inkscape:label="Decals">
    <path
       sodipodi:type="arc"
       style="color:#000000;fill:none;stroke:#000000;stroke-width:2.9446609px;stroke-linecap:butt;stroke-linejoin:miter;stroke-miterlimit:4;stroke-opacity:1;stroke-dasharray:none;stroke-dashoffset:0;marker:none;visibility:visible;display:inline;overflow:visible;enable-background:accumulate"
       id="path3837"
       sodipodi:cx="-140.41121"
       sodipodi:cy="-60.898525"
       sodipodi:rx="18.687822"
       sodipodi:ry="31.567266"
       d="m -121.72339,-60.898525 a 18.687822,31.567266 0 1 1 -37.37564,0 18.687822,31.567266 0 1 1 37.37564,0 z"
       transform="matrix(-0.2788575,0,0,-0.41356811,-13.154719,85.869527)" />
    <path
       sodipodi:type="arc"
       style="color:#000000;fill:none;stroke:#000000;stroke-width:2.9446609px;stroke-linecap:butt;stroke-linejoin:miter;stroke-miterlimit:4;stroke-opacity:1;stroke-dasharray:none;stroke-dashoffset:0;marker:none;visibility:visible;display:inline;overflow:visible;enable-background:accumulate"
       id="path3837-7"
       sodipodi:cx="-140.41121"
       sodipodi:cy="-60.898525"
       sodipodi:rx="18.687822"
       sodipodi:ry="31.567266"
       d="m -121.72339,-60.898525 a 18.687822,31.567266 0 1 1 -37.37564,0 18.687822,31.567266 0 1 1 37.37564,0 z"
       transform="matrix(0.19087608,0.20455049,-0.29964491,0.28308448,34.553202,157.12286)" />
    <path
       sodipodi:type="arc"
       style="color:#000000;fill:none;stroke:#000000;stroke-width:2.9446609px;stroke-linecap:butt;stroke-linejoin:miter;stroke-miterlimit:4;stroke-opacity:1;stroke-dasharray:none;stroke-dashoffset:0;marker:none;visibility:visible;display:inline;overflow:visible;enable-background:accumulate"
       id="path3837-4"
       sodipodi:cx="-140.41121"
       sodipodi:cy="-60.898525"
       sodipodi:rx="18.687822"
       sodipodi:ry="31.567266"
       d="m -121.72339,-60.898525 a 18.687822,31.567266 0 1 1 -37.37564,0 18.687822,31.567266 0 1 1 37.37564,0 z"
       transform="matrix(-0.19006119,0.20531725,-0.30076807,-0.28187597,-19.003052,122.82528)" />
    <path
       sodipodi:type="arc"
       style="color:#000000;fill:none;stroke:#000000;stroke-width:2.9446609px;stroke-linecap:butt;stroke-linejoin:miter;stroke-miterlimit:4;stroke-opacity:1;stroke-dasharray:none;stroke-dashoffset:0;marker:none;visibility:visible;display:inline;overflow:visible;enable-background:accumulate"
       id="path3837-0"
       sodipodi:cx="-140.41121"
       sodipodi:cy="-60.898525"
       sodipodi:rx="18.687822"
       sodipodi:ry="31.567266"
       d="m -121.72339,-60.898525 a 18.687822,31.567266 0 1 1 -37.37564,0 18.687822,31.567266 0 1 1 37.37564,0 z"
       transform="matrix(0,-0.28058316,0.41102457,0,50.605385,71.765234)" />
    <path
       sodipodi:type="arc"
       style="color:#000000;fill:#000000;fill-opacity:1;fill-rule:evenodd;stroke:#000000;stroke-width:12.73391438px;stroke-linecap:butt;stroke-linejoin:miter;stroke-miterlimit:4;stroke-opacity:1;stroke-dasharray:none;stroke-dashoffset:0;marker:none;visibility:visible;display:inline;overflow:visible;enable-background:accumulate"
       id="path3871"
       sodipodi:cx="-60.861691"
       sodipodi:cy="-84.637108"
       sodipodi:rx="6.0609155"
       sodipodi:ry="7.0710678"
       d="m -54.800775,-84.637108 a 6.0609155,7.0710678 0 1 1 -12.121831,0 6.0609155,7.0710678 0 1 1 12.121831,0 z"
       transform="matrix(-0.08456134,0,0,-0.07292972,20.872695,117.91854)" />
    <path
       sodipodi:type="arc"
       style="color:#000000;fill:#000000;fill-opacity:1;fill-rule:evenodd;stroke:#000000;stroke-width:12.73391438px;stroke-linecap:butt;stroke-linejoin:miter;stroke-miterlimit:4;stroke-opacity:1;stroke-dasharray:none;stroke-dashoffset:0;marker:none;visibility:visible;display:inline;overflow:visible;enable-background:accumulate"
       id="path3871-4"
       sodipodi:cx="-60.861691"
       sodipodi:cy="-84.637108"
       sodipodi:rx="6.0609155"
       sodipodi:ry="7.0710678"
       d="m -54.800775,-84.637108 a 6.0609155,7.0710678 0 1 1 -12.121831,0 6.0609155,7.0710678 0 1 1 12.121831,0 z"
       transform="matrix(-0.08456134,0,0,-0.07292972,11.388144,114.19254)" />
    <path
       sodipodi:type="arc"
       style="color:#000000;fill:#000000;fill-opacity:1;fill-rule:evenodd;stroke:#000000;stroke-width:12.73391438px;stroke-linecap:butt;stroke-linejoin:miter;stroke-miterlimit:4;stroke-opacity:1;stroke-dasharray:none;stroke-dashoffset:0;marker:none;visibility:visible;display:inline;overflow:visible;enable-background:accumulate"
       id="path3871-8"
       sodipodi:cx="-60.861691"
       sodipodi:cy="-84.637108"
       sodipodi:rx="6.0609155"
       sodipodi:ry="7.0710678"
       d="m -54.800775,-84.637108 a 6.0609155,7.0710678 0 1 1 -12.121831,0 6.0609155,7.0710678 0 1 1 12.121831,0 z"
       transform="matrix(-0.08456134,0,0,-0.07292972,11.600848,96.000882)" />
    <path
       sodipodi:type="arc"
       style="color:#000000;fill:#000000;fill-opacity:1;fill-rule:evenodd;stroke:#000000;stroke-width:12.73391438px;stroke-linecap:butt;stroke-linejoin:miter;stroke-miterlimit:4;stroke-opacity:1;stroke-dasharray:none;stroke-dashoffset:0;marker:none;visibility:visible;display:inline;overflow:visible;enable-background:accumulate"
       id="path3871-82"
       sodipodi:cx="-60.861691"
       sodipodi:cy="-84.637108"
       sodipodi:rx="6.0609155"
       sodipodi:ry="7.0710678"
       d="m -54.800775,-84.637108 a 6.0609155,7.0710678 0 1 1 -12.121831,0 6.0609155,7.0710678 0 1 1 12.121831,0 z"
       transform="matrix(-0.08456134,0,0,-0.07292972,33.509321,105.2037)" />
    <path
       sodipodi:type="arc"
       style="color:#000000;fill:none;stroke:#000000;stroke-width:2.9446609px;stroke-linecap:butt;stroke-linejoin:miter;stroke-miterlimit:4;stroke-opacity:1;stroke-dasharray:none;stroke-dashoffset:0;marker:none;visibility:visible;display:inline;overflow:visible;enable-background:accumulate"
       id="path3837-6"
       sodipodi:cx="-140.41121"
       sodipodi:cy="-60.898525"
       sodipodi:rx="18.687822"
       sodipodi:ry="31.567266"
       d="m -121.72339,-60.898525 a 18.687822,31.567266 0 1 1 -37.37564,0 18.687822,31.567266 0 1 1 37.37564,0 z"
       transform="matrix(-0.2788575,0,0,-0.41356811,61.845281,85.869527)" />
    <path
       sodipodi:type="arc"
       style="color:#000000;fill:none;stroke:#000000;stroke-width:2.9446609px;stroke-linecap:butt;stroke-linejoin:miter;stroke-miterlimit:4;stroke-opacity:1;stroke-dasharray:none;stroke-dashoffset:0;marker:none;visibility:visible;display:inline;overflow:visible;enable-background:accumulate"
       id="path3837-7-8"
       sodipodi:cx="-140.41121"
       sodipodi:cy="-60.898525"
       sodipodi:rx="18.687822"
       sodipodi:ry="31.567266"
       d="m -121.72339,-60.898525 a 18.687822,31.567266 0 1 1 -37.37564,0 18.687822,31.567266 0 1 1 37.37564,0 z"
       transform="matrix(0.19087608,0.20455049,-0.29964491,0.28308448,109.5532,157.12286)" />
    <path
       sodipodi:type="arc"
       style="color:#000000;fill:none;stroke:#000000;stroke-width:2.9446609px;stroke-linecap:butt;stroke-linejoin:miter;stroke-miterlimit:4;stroke-opacity:1;stroke-dasharray:none;stroke-dashoffset:0;marker:none;visibility:visible;display:inline;overflow:visible;enable-background:accumulate"
       id="path3837-4-5"
       sodipodi:cx="-140.41121"
       sodipodi:cy="-60.898525"
       sodipodi:rx="18.687822"
       sodipodi:ry="31.567266"
       d="m -121.72339,-60.898525 a 18.687822,31.567266 0 1 1 -37.37564,0 18.687822,31.567266 0 1 1 37.37564,0 z"
       transform="matrix(-0.19006119,0.20531725,-0.30076807,-0.28187597,55.996948,122.82528)" />
    <path
       sodipodi:type="arc"
       style="color:#000000;fill:none;stroke:#000000;stroke-width:2.9446609px;stroke-linecap:butt;stroke-linejoin:miter;stroke-miterlimit:4;stroke-opacity:1;stroke-dasharray:none;stroke-dashoffset:0;marker:none;visibility:visible;display:inline;overflow:visible;enable-background:accumulate"
       id="path3837-0-7"
       sodipodi:cx="-140.41121"
       sodipodi:cy="-60.898525"
       sodipodi:rx="18.687822"
       sodipodi:ry="31.567266"
       d="m -121.72339,-60.898525 a 18.687822,31.567266 0 1 1 -37.37564,0 18.687822,31.567266 0 1 1 37.37564,0 z"
       transform="matrix(0,-0.28058316,0.41102457,0,125.60539,71.765234)" />
    <path
       sodipodi:type="arc"
       style="color:#000000;fill:#000000;fill-opacity:1;fill-rule:evenodd;stroke:#000000;stroke-width:12.73391438px;stroke-linecap:butt;stroke-linejoin:miter;stroke-miterlimit:4;stroke-opacity:1;stroke-dasharray:none;stroke-dashoffset:0;marker:none;visibility:visible;display:inline;overflow:visible;enable-background:accumulate"
       id="path3871-6"
       sodipodi:cx="-60.861691"
       sodipodi:cy="-84.637108"
       sodipodi:rx="6.0609155"
       sodipodi:ry="7.0710678"
       d="m -54.800775,-84.637108 a 6.0609155,7.0710678 0 1 1 -12.121831,0 6.0609155,7.0710678 0 1 1 12.121831,0 z"
       transform="matrix(-0.08456134,0,0,-0.07292972,95.8727,117.91854)" />
    <path
       sodipodi:type="arc"
       style="color:#000000;fill:#000000;fill-opacity:1;fill-rule:evenodd;stroke:#000000;stroke-width:12.73391438px;stroke-linecap:butt;stroke-linejoin:miter;stroke-miterlimit:4;stroke-opacity:1;stroke-dasharray:none;stroke-dashoffset:0;marker:none;visibility:visible;display:inline;overflow:visible;enable-background:accumulate"
       id="path3871-4-1"
       sodipodi:cx="-60.861691"
       sodipodi:cy="-84.637108"
       sodipodi:rx="6.0609155"
       sodipodi:ry="7.0710678"
       d="m -54.800775,-84.637108 a 6.0609155,7.0710678 0 1 1 -12.121831,0 6.0609155,7.0710678 0 1 1 12.121831,0 z"
       transform="matrix(-0.08456134,0,0,-0.07292972,86.388145,114.19254)" />
    <path
       sodipodi:type="arc"
       style="color:#000000;fill:#000000;fill-opacity:1;fill-rule:evenodd;stroke:#000000;stroke-width:12.73391438px;stroke-linecap:butt;stroke-linejoin:miter;stroke-miterlimit:4;stroke-opacity:1;stroke-dasharray:none;stroke-dashoffset:0;marker:none;visibility:visible;display:inline;overflow:visible;enable-background:accumulate"
       id="path3871-8-8"
       sodipodi:cx="-60.861691"
       sodipodi:cy="-84.637108"
       sodipodi:rx="6.0609155"
       sodipodi:ry="7.0710678"
       d="m -54.800775,-84.637108 a 6.0609155,7.0710678 0 1 1 -12.121831,0 6.0609155,7.0710678 0 1 1 12.121831,0 z"
       transform="matrix(-0.08456134,0,0,-0.07292972,86.600849,96.000881)" />
    <path
       sodipodi:type="arc"
       style="color:#000000;fill:#000000;fill-opacity:1;fill-rule:evenodd;stroke:#000000;stroke-width:12.73391438px;stroke-linecap:butt;stroke-linejoin:miter;stroke-miterlimit:4;stroke-opacity:1;stroke-dasharray:none;stroke-dashoffset:0;marker:none;visibility:visible;display:inline;overflow:visible;enable-background:accumulate"
       id="path3871-82-9"
       sodipodi:cx="-60.861691"
       sodipodi:cy="-84.637108"
       sodipodi:rx="6.0609155"
       sodipodi:ry="7.0710678"
       d="m -54.800775,-84.637108 a 6.0609155,7.0710678 0 1 1 -12.121831,0 6.0609155,7.0710678 0 1 1 12.121831,0 z"
       transform="matrix(-0.08456134,0,0,-0.07292972,108.50932,105.2037)" />
  </g>
</svg>
