<?xml version="1.0" encoding="UTF-8" standalone="no"?>
<!-- Created with Inkscape (http://www.inkscape.org/) -->
<svg id="svg2" xmlns:rdf="http://www.w3.org/1999/02/22-rdf-syntax-ns#" xmlns="http://www.w3.org/2000/svg" height="30" width="30" version="1.1" xmlns:cc="http://creativecommons.org/ns#" xmlns:dc="http://purl.org/dc/elements/1.1/">
	<metadata id="metadata7">
		<rdf:RDF>
			<cc:Work rdf:about="">
				<dc:format>image/svg+xml</dc:format>
				<dc:type rdf:resource="http://purl.org/dc/dcmitype/StillImage"/>
				<dc:title/>
			</cc:Work>
		</rdf:RDF>
	</metadata>
	<g id="layer1" transform="translate(0,-1022.3622)">
		<path id="path3017" stroke-linejoin="miter" d="m15.033785,1022.4751-9.1866626,0-5.7846224,5.7846,0,18.205,5.834967,5.835,6.768563,0,0-7.9355-4.6679748,0,0-7.002,14.0039208,0,0,7.002-4.667974,0,0,7.9355,6.768563,0,5.834967-5.835,0-18.205-5.834967-5.835z" stroke="#000" stroke-linecap="butt" stroke-miterlimit="4" stroke-dasharray="none" stroke-width="0.11669934" fill="none"/>
	</g>
	<g id="layer2" transform="translate(0,-98)">
		<path id="path3788" d="m3.0298535,124.95879-2.88611249-2.88633,0-9.06482,0-9.0648,2.86527239-2.86551,2.8652726-2.865494,3.8345197-0.0024c2.1089863-0.0013,6.1976823-0.01832,9.0859913-0.03772l5.25147-0.03528,2.907064,2.903004,2.907064,2.90299v9.06526,9.06527l-2.886336,2.88611-2.886337,2.88611h-3.344575-3.344574v-3.87608-3.87609h2.333986,2.333988v-3.58433-3.58434h-7.064479-7.0644783v3.58434,3.58433h2.3339863,2.333988v3.87609,3.87608h-3.3447995-3.3447989l-2.8861121-2.88633z" stroke-miterlimit="4" stroke-dasharray="none" stroke-width="0.5" fill="#ff7f2a"/>
	</g>
</svg>
