<?xml version="1.0" encoding="UTF-8" standalone="no"?>
<!-- Created with Inkscape (http://www.inkscape.org/) -->

<svg
   xmlns:dc="http://purl.org/dc/elements/1.1/"
   xmlns:cc="http://creativecommons.org/ns#"
   xmlns:rdf="http://www.w3.org/1999/02/22-rdf-syntax-ns#"
   xmlns:svg="http://www.w3.org/2000/svg"
   xmlns="http://www.w3.org/2000/svg"
   version="1.1"
   width="128"
   height="128"
   id="svg2">
  <defs
     id="defs4" />
  <metadata
     id="metadata7">
    <rdf:RDF>
      <cc:Work
         rdf:about="">
        <dc:format>image/svg+xml</dc:format>
        <dc:type
           rdf:resource="http://purl.org/dc/dcmitype/StillImage" />
        <dc:title></dc:title>
      </cc:Work>
    </rdf:RDF>
  </metadata>
  <g
     transform="translate(0,-924.36218)"
     id="layer1"
     style="display:inline">
    <path
       d="M 32.596192,63.724279 C 15.374445,29.280457 1.283925,1.0429563 1.283925,0.97427924 c 0,-0.068677 28.18125,-0.12486728 62.625,-0.12486728 41.616575,0 62.624995,0.0839328 62.624995,0.25019924 0,0.2455825 -62.440158,125.2497988 -62.562828,125.2497988 -0.03445,0 -14.153152,-28.181308 -31.3749,-62.625131 z m 51.937733,6.750133 0,-7.875 -20.5,0 -20.5,0 0,7.875 0,7.875 20.5,0 20.5,0 0,-7.875 z M 29.717232,18.156008 c 3.637365,3.637364 4.617835,4.492262 4.866693,4.243404 0.248857,-0.248859 -0.606033,-1.229321 -4.243373,-4.86666 l -4.555015,-4.555016 4.55418,-4.5591765 C 33.963245,4.7910555 34.830552,3.7960402 34.583925,3.549412 34.337297,3.3027837 33.342282,4.170092 29.714777,7.7936207 L 25.155601,12.3478 20.600585,7.7927845 C 16.969801,4.1620002 15.982505,3.3008322 15.734761,3.5485757 15.487018,3.796319 16.348186,4.7846297 19.978972,8.419399 l 4.555019,4.560016 -4.61456,4.609502 c -3.676672,3.672644 -4.556939,4.678931 -4.331057,4.951102 0.227779,0.274457 1.196516,-0.570467 4.928656,-4.29873 l 4.645155,-4.640329 4.555047,4.555048 z m 78.582758,-0.415511 c -2.48384,-2.486562 -4.51607,-4.633583 -4.51607,-4.771158 0,-0.137575 2.02278,-2.270567 4.49505,-4.7399823 2.99712,-2.9936505 4.41173,-4.5731675 4.24502,-4.739881 -0.16672,-0.1667132 -1.78961,1.2878505 -4.87005,4.3649165 L 103.03392,12.469343 98.41391,7.8543922 C 94.738,4.1825107 93.730552,3.3027837 93.483925,3.549412 c -0.246628,0.2466282 0.633097,1.2540757 4.30498,4.9299855 l 4.614955,4.6200145 -4.587933,4.592963 c -3.067425,3.070791 -4.486542,4.655624 -4.282005,4.782035 0.199208,0.123117 1.888608,-1.391876 4.842965,-4.342996 l 4.537043,-4.532068 4.6095,4.61456 c 3.67239,3.676419 4.67894,4.556929 4.95107,4.331086 0.27444,-0.227766 -0.54591,-1.171915 -4.17451,-4.804495 l 0,0 z"
       transform="translate(0,924.36218)"
       id="path3061"
       style="fill:#ffcc00;fill-opacity:1;stroke-width:0.5;stroke-miterlimit:4;stroke-dasharray:none" />
    <path
       d="m 44.533925,70.474412 0,-7.125 19.5,0 19.5,0 0,7.125 0,7.125 -19.5,0 -19.5,0 0,-7.125 z"
       transform="translate(0,924.36218)"
       id="path3063"
       style="fill:#c8c4b7;fill-opacity:1;stroke-width:0.5;stroke-miterlimit:4;stroke-dasharray:none" />
  </g>
  <g
     id="layer2">
    <path
       d="M 0.5,0.5 64,127.5 127.5,0.5 z"
       id="path3045"
       style="fill:none;stroke:#000000;stroke-width:1px;stroke-linecap:butt;stroke-linejoin:miter;stroke-opacity:1" />
    <path
       d="m 44,78 0,-15 40,0 0.05732,15.016389 z"
       id="path3051"
       style="fill:none;stroke:#000000;stroke-width:1px;stroke-linecap:butt;stroke-linejoin:miter;stroke-opacity:1" />
    <path
       d="M 15.596771,3.47177 34.653229,22.528229"
       id="path3053"
       style="fill:none;stroke:#000000;stroke-width:0.94354141px;stroke-linecap:butt;stroke-linejoin:miter;stroke-opacity:1" />
    <path
       d="M 25.083038,13.041961 34.65026,3.47474 15.59974,22.52526"
       id="path3055"
       style="fill:none;stroke:#000000;stroke-width:0.9494803px;stroke-linecap:butt;stroke-linejoin:miter;stroke-opacity:1" />
    <path
       d="M 93.471771,3.47177 112.52823,22.528229"
       id="path3057"
       style="fill:none;stroke:#000000;stroke-width:0.94354141px;stroke-linecap:butt;stroke-linejoin:miter;stroke-opacity:1" />
    <path
       d="M 102.95804,13.041961 112.52526,3.47474 93.47474,22.52526"
       id="path3059"
       style="fill:none;stroke:#000000;stroke-width:0.9494803px;stroke-linecap:butt;stroke-linejoin:miter;stroke-opacity:1" />
  </g>
</svg>
